Land_normalized_pl14_filtered_grf
version=1
nRows=12
nColumns=37
inDegrees=yes
endheader
time		1_ground_force_vx		1_ground_force_vy		1_ground_force_vz		1_ground_force_px		1_ground_force_py		1_ground_force_pz		1_ground_torque_x		1_ground_torque_y		1_ground_torque_z		2_ground_force_vx		2_ground_force_vy		2_ground_force_vz		2_ground_force_px		2_ground_force_py		2_ground_force_pz		2_ground_torque_x		2_ground_torque_y		2_ground_torque_z		3_ground_force_vx		3_ground_force_vy		3_ground_force_vz		3_ground_force_px		3_ground_force_py		3_ground_force_pz		3_ground_torque_x		3_ground_torque_y		3_ground_torque_z		4_ground_force_vx		4_ground_force_vy		4_ground_force_vz		4_ground_force_px		4_ground_force_py		4_ground_force_pz		4_ground_torque_x		4_ground_torque_y		4_ground_torque_z		
1.506167		-66.920461		824.920422		152.587058		0.139121		0.000000		0.277654		-0.800112		9.862939		1.824371		68.204961		861.385743		133.384029		-0.139500		0.000000		0.280428		-0.256389		-3.238195		-0.501444		21.933234		1.977911		0.432918		0.375759		1.310968		1.913867		-0.097816		-0.008821		-0.001931		-19.611297		-0.155564		1.627435		-0.265407		1.309950		1.925007		0.015002		0.000119		-0.001245		
1.508995		-69.354776		835.364738		152.933320		0.139772		0.000000		0.278093		-0.801037		9.648346		1.766359		71.905984		860.152591		128.767414		-0.140283		0.000000		0.281214		-0.236617		-2.830459		-0.423729		21.911456		1.981638		0.505967		0.375776		1.310972		1.913907		-0.097421		-0.008811		-0.002249		-19.608265		-0.175857		1.767118		-0.265399		1.309948		1.925038		0.017751		0.000159		-0.001599		
1.511823		-71.687100		844.085207		153.259324		0.140354		0.000000		0.278410		-0.798407		9.400963		1.706922		75.766331		858.438182		124.171302		-0.141054		0.000000		0.281984		-0.222157		-2.517169		-0.364113		21.899224		1.997455		0.589286		0.375789		1.310964		1.913941		-0.097454		-0.008889		-0.002623		-19.601812		-0.207714		1.901253		-0.265385		1.309945		1.925071		0.019407		0.000206		-0.001882		
1.514652		-73.924652		851.002474		153.475380		0.140867		0.000000		0.278622		-0.794023		9.140648		1.648487		79.748900		856.438097		120.082161		-0.141814		0.000000		0.282692		-0.209481		-2.249744		-0.315445		21.902959		2.015594		0.662800		0.375797		1.310937		1.913964		-0.097785		-0.008999		-0.002959		-19.592347		-0.236219		2.000889		-0.265368		1.309942		1.925106		0.019720		0.000238		-0.002014		
1.517480		-76.034958		856.177277		153.590574		0.141305		0.000000		0.278750		-0.789095		8.885464		1.593973		83.795179		854.442807		116.954819		-0.142548		0.000000		0.283283		-0.193770		-1.975853		-0.270453		21.927266		2.020442		0.706685		0.375801		1.310893		1.913974		-0.098072		-0.009037		-0.003161		-19.575989		-0.252774		2.047530		-0.265348		1.309941		1.925143		0.018701		0.000241		-0.001956		
1.520308		-77.955267		859.810632		153.669334		0.141665		0.000000		0.278812		-0.782545		8.631157		1.542601		87.668531		852.774195		115.054014		-0.143210		0.000000		0.283721		-0.172466		-1.677716		-0.226356		21.975226		1.996028		0.706520		0.375801		1.310836		1.913971		-0.097857		-0.008889		-0.003146		-19.543392		-0.258329		2.038676		-0.265327		1.309943		1.925180		0.016513		0.000218		-0.001722		
1.523136		-79.604942		862.250984		153.788822		0.141945		0.000000		0.278823		-0.773047		8.373380		1.493454		90.943048		851.700472		114.361345		-0.143734		0.000000		0.283985		-0.147916		-1.385316		-0.186012		22.044461		1.934521		0.659494		0.375802		1.310773		1.913958		-0.096798		-0.008495		-0.002896		-19.482982		-0.261734		1.989277		-0.265305		1.309947		1.925216		0.013422		0.000180		-0.001370		
1.525965		-80.887471		863.887616		154.041714		0.142139		0.000000		0.278783		-0.761689		8.134940		1.450560		93.142346		851.387409		114.688795		-0.144050		0.000000		0.284074		-0.126510		-1.156404		-0.155776		22.124271		1.841090		0.576640		0.375804		1.310713		1.913943		-0.094884		-0.007896		-0.002473		-19.385275		-0.274236		1.923135		-0.265284		1.309956		1.925250		0.009766		0.000138		-0.000969		
1.528793		-81.709105		865.104807		154.570997		0.142229		0.000000		0.278677		-0.751318		7.954675		1.421286		93.941683		851.855157		115.811902		-0.144113		0.000000		0.283988		-0.115172		-1.044371		-0.141984		22.196037		1.734544		0.479346		0.375810		1.310664		1.913928		-0.092525		-0.007231		-0.001999		-19.248206		-0.305654		1.863100		-0.265263		1.309967		1.925280		0.006021		0.000095		-0.000583		
1.531621		-82.017286		866.216704		155.577941		0.142200		0.000000		0.278485		-0.743157		7.848779		1.409689		93.344092		852.939980		117.591306		-0.143917		0.000000		0.283726		-0.116822		-1.067476		-0.147170		22.240018		1.640930		0.392225		0.375820		1.310632		1.913918		-0.090449		-0.006673		-0.001595		-19.082671		-0.361277		1.821378		-0.265240		1.309978		1.925307		0.002791		0.000053		-0.000267		
1.534449		-81.806907		867.408742		157.309253		0.142031		0.000000		0.278184		-0.736305		7.807137		1.415866		91.625865		854.329601		120.042079		-0.143492		0.000000		0.283277		-0.129376		-1.206326		-0.169503		22.243765		1.583366		0.335807		0.375836		1.310621		1.913913		-0.089400		-0.006364		-0.001350		-18.912164		-0.440881		1.798139		-0.265213		1.309991		1.925331		0.000720		0.000017		-0.000068		
1.537278		-81.122363		868.717123		160.011018		0.141705		0.000000		0.277752		-0.730505		7.822785		1.440898		89.205485		855.608223		123.274835		-0.142883		0.000000		0.282621		-0.148003		-1.419625		-0.204545		22.208376		1.573267		0.320545		0.375856		1.310630		1.913915		-0.089830		-0.006363		-0.001296		-18.768489		-0.537682		1.786493		-0.265182		1.310000		1.925350		0.000327		0.000010		-0.000031		
